<?xml version="1.0" standalone="no"?>
<!DOCTYPE svg PUBLIC "-//W3C//DTD SVG 20010904//EN"
 "http://www.w3.org/TR/2001/REC-SVG-20010904/DTD/svg10.dtd">
<svg version="1.0" xmlns="http://www.w3.org/2000/svg"
 width="860.000000pt" height="920.000000pt" viewBox="0 0 860.000000 920.000000"
 preserveAspectRatio="xMidYMid meet">

<g transform="translate(0.000000,920.000000) scale(0.100000,-0.100000)"
fill="#000000" stroke="none">
<path d="M0 4600 l0 -4600 4300 0 4300 0 0 4600 0 4600 -4300 0 -4300 0 0
-4600z m5137 3870 c294 -70 512 -283 602 -588 l22 -72 42 7 c23 5 94 8 157 7
415 -3 780 -285 907 -701 23 -77 26 -106 27 -233 1 -80 -2 -156 -6 -170 -6
-22 0 -30 60 -70 37 -25 106 -84 153 -132 170 -171 272 -366 331 -633 21 -99
16 -362 -10 -466 -43 -176 -107 -321 -187 -427 l-37 -47 49 -40 c274 -226 429
-476 503 -810 25 -117 28 -391 4 -516 -73 -384 -308 -721 -641 -919 l-73 -43
0 -119 c0 -488 -324 -934 -796 -1098 -92 -32 -92 -32 -109 -78 -73 -195 -230
-402 -389 -511 -340 -234 -822 -239 -1186 -13 -101 63 -229 188 -299 292 -66
99 -112 203 -149 339 l-26 96 -1 1252 0 1252 21 28 c40 54 83 75 142 71 62 -5
98 -28 129 -84 l23 -39 0 -1214 c0 -1363 -5 -1270 75 -1436 75 -155 174 -254
330 -330 302 -148 639 -94 863 139 62 64 125 153 117 166 -3 4 -36 10 -75 14
-160 16 -246 58 -271 133 -22 68 15 157 78 187 42 20 70 20 185 0 109 -19 265
-14 368 11 92 23 275 116 342 174 176 151 290 363 313 585 l8 69 -39 -6 c-118
-20 -241 -29 -339 -23 -122 7 -275 35 -322 60 -48 24 -73 73 -73 141 0 55 2
60 45 102 l45 45 72 -5 c40 -3 105 -10 143 -17 109 -19 319 -8 429 24 188 53
353 152 485 292 408 429 361 1149 -99 1517 -93 74 -220 143 -345 187 -49 17
-98 39 -108 48 -74 67 -63 192 23 249 42 29 93 29 189 1 l74 -22 32 39 c79 94
142 230 170 366 23 112 16 313 -14 414 -28 93 -82 205 -136 281 -39 54 -180
194 -195 194 -3 0 -20 -23 -39 -51 -59 -86 -158 -185 -247 -245 -79 -54 -89
-58 -140 -58 -88 2 -154 66 -154 151 0 64 21 95 105 158 204 154 293 333 282
565 -9 172 -60 285 -186 410 -205 203 -489 247 -743 113 -88 -46 -157 -108
-228 -207 -60 -83 -95 -106 -160 -106 -70 0 -127 42 -149 111 -20 64 5 125
100 243 33 42 101 108 150 147 99 80 101 84 73 180 -68 230 -267 379 -509 379
-241 0 -449 -162 -510 -396 -13 -51 -15 -213 -15 -1251 0 -980 -2 -1199 -14
-1226 -7 -18 -30 -47 -50 -65 -32 -28 -44 -32 -94 -32 -74 0 -117 25 -143 85
-19 43 -20 70 -17 1267 l3 1223 23 80 c88 316 298 521 617 605 100 27 302 27
412 0z m-3269 -707 c15 -11 36 -35 47 -54 19 -33 20 -50 18 -617 -2 -539 -4
-585 -20 -613 -59 -100 -212 -97 -270 7 l-23 39 0 576 0 576 23 34 c39 58 84
81 145 77 32 -3 64 -13 80 -25z m928 16 c125 -23 258 -118 312 -225 50 -98 55
-140 55 -451 -1 -311 -6 -358 -51 -448 -83 -169 -233 -252 -439 -243 -88 3
-106 7 -176 40 -124 60 -207 159 -242 293 -12 47 -15 121 -15 355 0 162 5 315
11 339 17 77 62 154 124 216 113 113 254 155 421 124z m916 -14 c15 -11 36
-36 47 -56 21 -36 21 -49 21 -613 0 -635 2 -611 -62 -659 -71 -52 -155 -42
-212 25 l-36 42 0 590 c0 572 1 592 20 624 32 52 75 74 140 70 35 -3 66 -11
82 -23z m1122 -895 c14 -5 58 -34 97 -64 106 -81 168 -101 304 -100 136 0 185
18 300 104 88 67 108 75 163 66 44 -7 79 -31 110 -77 33 -47 27 -122 -13 -174
-63 -83 -228 -181 -363 -216 -95 -24 -296 -26 -391 -4 -131 31 -314 138 -377
220 -39 52 -45 127 -12 175 47 69 116 95 182 70z m-3597 -789 c30 -14 48 -31
62 -60 20 -39 21 -54 21 -619 l0 -579 -23 -34 c-32 -49 -105 -83 -158 -74 -46
8 -101 51 -118 93 -8 20 -11 190 -9 614 3 572 4 587 23 614 47 62 126 79 202
45z m968 4 c87 -23 149 -61 219 -135 44 -47 71 -88 92 -136 l29 -69 3 -297 c2
-181 -1 -320 -8 -355 -26 -143 -119 -267 -248 -331 -69 -34 -83 -37 -179 -40
-64 -3 -122 0 -151 8 -172 46 -303 193 -331 370 -17 103 -14 562 4 638 61 259
315 413 570 347z m1228 0 c85 -22 134 -51 204 -118 67 -64 105 -128 128 -218
18 -65 21 -574 5 -660 -27 -140 -121 -263 -248 -327 -69 -34 -84 -37 -177 -40
-163 -6 -274 35 -368 138 -105 114 -126 208 -126 545 0 276 9 351 52 439 97
195 319 296 530 241z m2507 -517 c53 -36 71 -68 72 -125 0 -56 -10 -81 -54
-131 -81 -94 -118 -192 -118 -315 0 -132 30 -215 119 -325 48 -59 51 -67 51
-119 0 -39 -6 -66 -20 -89 -22 -35 -91 -74 -131 -74 -131 1 -294 243 -330 490
-22 152 5 329 71 462 52 103 134 207 183 232 48 23 118 20 157 -6z m-1631
-763 c16 -8 40 -28 55 -45 21 -26 26 -42 26 -88 0 -75 -25 -117 -86 -144 -145
-64 -271 80 -197 225 31 60 135 87 202 52z m-2748 -405 c162 -31 294 -146 349
-305 18 -53 20 -87 22 -374 2 -305 1 -318 -21 -381 -70 -201 -223 -310 -437
-310 -210 0 -359 99 -437 291 -20 51 -22 72 -25 362 -2 197 1 326 8 360 51
249 288 405 541 357z m904 -10 c26 -13 49 -34 63 -59 22 -39 22 -41 22 -615 0
-631 2 -607 -59 -659 -37 -31 -99 -43 -146 -27 -19 6 -51 30 -70 53 l-35 41 0
590 0 591 24 36 c46 67 124 86 201 49z m970 5 c80 -21 152 -64 211 -127 61
-65 89 -109 114 -184 18 -52 20 -84 20 -344 0 -158 -5 -311 -10 -341 -27 -140
-121 -263 -249 -327 l-75 -37 -131 0 -131 0 -76 38 c-93 46 -168 123 -211 217
-23 50 -31 88 -38 165 -10 125 -10 400 0 526 9 118 46 204 121 283 53 57 158
119 226 135 62 14 165 12 229 -4z m2152 -906 c96 -36 131 -162 66 -240 -14
-16 -67 -49 -118 -74 -66 -31 -103 -57 -129 -86 -75 -89 -104 -192 -85 -312 9
-59 8 -76 -6 -113 -24 -63 -72 -94 -148 -94 -53 0 -61 3 -97 38 -49 46 -70
118 -70 243 0 247 136 474 354 590 104 56 175 70 233 48z m-3405 -780 c140
-30 253 -120 321 -257 l42 -85 0 -331 c0 -376 -2 -387 -81 -506 -68 -103 -155
-159 -290 -187 -255 -52 -502 120 -543 377 -13 81 -14 522 -1 609 25 172 166
329 339 376 59 17 145 18 213 4z m918 -19 c18 -13 41 -41 51 -64 18 -39 19
-73 16 -611 -2 -552 -3 -571 -22 -605 -28 -49 -97 -83 -154 -77 -49 5 -86 29
-119 77 l-22 33 0 583 1 582 22 33 c12 19 38 44 57 57 45 31 121 27 170 -8z
m608 3 c15 -11 37 -35 50 -53 l22 -33 0 -582 0 -582 -22 -33 c-53 -77 -131
-99 -207 -58 -85 45 -81 14 -81 677 l0 585 22 32 c35 51 84 75 141 71 27 -2
60 -13 75 -24z"/>
<path d="M2619 7447 c-65 -43 -69 -62 -69 -347 0 -246 1 -258 23 -300 29 -57
75 -83 140 -77 57 5 95 30 119 78 16 30 18 66 18 292 0 284 -3 303 -59 350
-43 36 -122 38 -172 4z"/>
<path d="M2048 5780 c-37 -11 -68 -34 -89 -67 -17 -26 -19 -52 -19 -303 0
-257 1 -277 20 -308 32 -52 76 -74 138 -69 46 3 59 9 90 41 l37 36 3 283 c3
252 2 285 -14 315 -30 56 -108 90 -166 72z"/>
<path d="M3275 5779 c-17 -4 -46 -25 -65 -44 l-35 -36 -3 -282 c-2 -268 -1
-284 18 -315 61 -98 194 -94 254 8 20 33 21 48 18 305 -3 251 -4 271 -23 302
-33 53 -104 80 -164 62z"/>
<path d="M1395 4071 c-66 -40 -67 -43 -66 -354 1 -248 3 -283 18 -310 39 -65
140 -87 204 -44 66 44 69 61 69 357 0 247 -1 267 -20 298 -42 68 -139 94 -205
53z"/>
<path d="M3275 4089 c-17 -5 -46 -25 -65 -44 l-35 -36 -3 -276 c-2 -188 1
-285 8 -304 20 -47 64 -81 114 -86 57 -7 97 9 136 54 l30 34 0 280 c0 309 -2
321 -62 357 -41 24 -84 32 -123 21z"/>
<path d="M2025 2390 c-11 -4 -33 -22 -50 -40 l-30 -31 0 -294 0 -293 25 -27
c34 -37 72 -55 115 -55 51 0 101 26 125 65 19 30 20 49 20 309 0 306 -2 319
-63 356 -33 21 -105 26 -142 10z"/>
</g>
</svg>
